<mxfile host="app.diagrams.net" modified="2024-06-07T05:56:45.595Z" agent="Mozilla/5.0 (Windows NT 10.0; Win64; x64) AppleWebKit/537.36 (KHTML, like Gecko) Chrome/125.0.0.0 Safari/537.36" version="24.5.1" etag="cnpep-G6mRBvWUZClyZt" type="github">
  <diagram name="Page-1" id="n7HODsHy2rIz73qUG2D6">
    <mxGraphModel>
      <root>
        <mxCell id="0" />
        <mxCell id="1" parent="0" />
      </root>
    </mxGraphModel>
  </diagram>
</mxfile>
